<svg width="115" height="39" viewBox="0 0 115 39" fill="none" xmlns="http://www.w3.org/2000/svg">
<path d="M90.7022 23.1519C92.1777 23.1519 93.2235 22.8794 94.0002 22.3079V19.6706C93.088 20.3089 91.9969 20.6326 90.8888 20.5937C88.6106 20.5937 87.6689 18.8003 87.6689 15.9739C87.6689 13.0157 88.8232 11.4948 90.9148 11.4948C91.9978 11.503 93.0604 11.7937 94.0002 12.3387V9.59587C93.332 9.21784 92.1516 8.94531 90.5677 8.94531C86.4929 8.94531 84.3752 11.9079 84.3752 16.0618C84.3752 20.6244 86.4451 23.1519 90.7022 23.1519ZM70.7404 21.9563V19.3189C69.4792 20.1268 68.023 20.5677 66.5311 20.5937C64.1964 20.5937 63.3111 19.4816 63.181 17.2003H70.8749V15.4904C70.8749 10.7387 68.8093 8.94531 65.6198 8.94531C61.7142 8.94531 59.8829 11.9607 59.8829 16.0882C59.8829 20.8398 62.1872 23.1519 66.2664 23.1519C67.8463 23.2152 69.4088 22.7989 70.7534 21.9563H70.7404ZM41.5137 9.20905V14.6156H37.2523V9.20905H34.0627V22.8706H37.2523V17.1563H41.5137V22.8706H44.7076V9.21784H41.5137V9.20905ZM59.1061 20.3255H57.6828V9.21784H48.3918V10.3871C48.3918 13.7277 48.1749 18.0486 47.0509 20.3299H46.0572V25.9915H49.0081V22.8662H56.1683V25.9915H59.1061V20.3255ZM80.9339 22.8794H84.5531L79.4325 15.5167L83.9369 9.21344H80.7213L76.2169 15.5167V9.21784H73.036V22.8794H76.2256V16.1717L80.9339 22.8794ZM65.5807 11.486C67.1646 11.486 67.6463 12.8047 67.6463 14.5277V14.8003H63.194C63.2721 12.6376 64.0532 11.486 65.5807 11.486ZM54.5062 20.3255H49.9931C50.861 18.2596 51.1171 14.5409 51.1171 12.1761V11.7673H54.4976L54.5062 20.3255Z" fill="black"/>
<path d="M31.3893 22.8791H28.1434V6.55384H26.694C24.0382 6.55384 22.6452 7.91209 22.6452 9.92088C22.6452 12.2022 23.6129 13.2615 25.5961 14.6198L27.2321 15.7319L22.5107 22.8747H19L23.2354 16.4923C20.7966 14.7341 19.4253 13.0154 19.4253 10.1099C19.4253 6.47033 21.9205 4 26.6636 4H31.385V22.8747L31.3893 22.8791Z" fill="#FC3F1D"/>
<path d="M32.7552 28L34.0778 31.1797L37.5105 31.4549L34.8951 33.6953L35.6942 37.0451L32.7552 35.25L29.8163 37.0451L30.6154 33.6953L28 31.4549L31.4327 31.1797L32.7552 28Z" fill="#FDC20C"/>
<path d="M44.7552 28L46.0778 31.1797L49.5105 31.4549L46.8951 33.6953L47.6942 37.0451L44.7552 35.25L41.8163 37.0451L42.6154 33.6953L40 31.4549L43.4327 31.1797L44.7552 28Z" fill="#FDC20C"/>
<path d="M56.7552 28L58.0778 31.1797L61.5105 31.4549L58.8951 33.6953L59.6942 37.0451L56.7552 35.25L53.8163 37.0451L54.6154 33.6953L52 31.4549L55.4327 31.1797L56.7552 28Z" fill="#FDC20C"/>
<path d="M68.7552 28L70.0778 31.1797L73.5105 31.4549L70.8951 33.6953L71.6942 37.0451L68.7552 35.25L65.8163 37.0451L66.6154 33.6953L64 31.4549L67.4327 31.1797L68.7552 28Z" fill="#FDC20C"/>
<path d="M80.7552 28L82.0778 31.1797L85.5105 31.4549L82.8951 33.6953L83.6942 37.0451L80.7552 35.25L77.8163 37.0451L78.6154 33.6953L76 31.4549L79.4327 31.1797L80.7552 28Z" fill="#FDC20C"/>
</svg>
